<?xml version="1.0" encoding="UTF-8"?>
<!DOCTYPE svg PUBLIC "-//W3C//DTD SVG 1.1//EN" "http://www.w3.org/Graphics/SVG/1.1/DTD/svg11.dtd">
<svg xmlns="http://www.w3.org/2000/svg" version="1.1" width="64px" height="64px" style="shape-rendering:geometricPrecision; text-rendering:geometricPrecision; image-rendering:optimizeQuality; fill-rule:evenodd; clip-rule:evenodd" xmlns:xlink="http://www.w3.org/1999/xlink">
<g><path style="opacity:0.985" fill="#81dcf5" d="M 31.5,7.5 C 31.7035,9.39037 31.0368,10.8904 29.5,12C 26.2793,12.2778 23.2793,13.1111 20.5,14.5C 21.8499,13.1765 21.6833,12.1765 20,11.5C 15.4429,12.8495 12.2763,15.6828 10.5,20C 10.8361,21.0299 11.5028,21.5299 12.5,21.5C 11.8368,23.8036 11.1702,26.1369 10.5,28.5C 9.42312,29.7051 8.08979,30.3718 6.5,30.5C 6.09704,13.5751 14.4304,5.90843 31.5,7.5 Z"/></g>
<g><path style="opacity:0.991" fill="#4ccdf0" d="M 31.5,7.5 C 38.4905,8.49526 43.4905,12.1619 46.5,18.5C 49.3251,29.0111 45.9918,36.8444 36.5,42C 30.8973,43.1237 25.2306,43.7904 19.5,44C 18.944,44.3826 18.6107,44.8826 18.5,45.5C 9.38601,51.0655 6.71935,48.8988 10.5,39C 9.31222,36.1232 7.97889,33.2899 6.5,30.5C 8.08979,30.3718 9.42312,29.7051 10.5,28.5C 11.1702,26.1369 11.8368,23.8036 12.5,21.5C 14.5691,18.4275 17.2358,16.0941 20.5,14.5C 23.2793,13.1111 26.2793,12.2778 29.5,12C 31.0368,10.8904 31.7035,9.39037 31.5,7.5 Z"/></g>
<g><path style="opacity:1" fill="#f4fcfe" d="M 20.5,14.5 C 17.2358,16.0941 14.5691,18.4275 12.5,21.5C 11.5028,21.5299 10.8361,21.0299 10.5,20C 12.2763,15.6828 15.4429,12.8495 20,11.5C 21.6833,12.1765 21.8499,13.1765 20.5,14.5 Z"/></g>
<g><path style="opacity:0.978" fill="#9b36c3" d="M 46.5,18.5 C 51.6507,20.9842 54.9841,24.9842 56.5,30.5C 54.629,30.8588 53.129,31.8588 52,33.5C 50.4072,43.9163 44.2405,49.2497 33.5,49.5C 32.2949,50.5769 31.6282,51.9102 31.5,53.5C 26.0995,52.4073 21.7662,49.7406 18.5,45.5C 18.6107,44.8826 18.944,44.3826 19.5,44C 25.2306,43.7904 30.8973,43.1237 36.5,42C 45.9918,36.8444 49.3251,29.0111 46.5,18.5 Z"/></g>
<g><path style="opacity:1" fill="#028baf" d="M 14.5,22.5 C 19.4928,22.997 20.4928,25.1637 17.5,29C 12.3823,28.8242 11.3823,26.6576 14.5,22.5 Z"/></g>
<g><path style="opacity:1" fill="#028baf" d="M 25.5,22.5 C 30.4928,22.997 31.4928,25.1637 28.5,29C 23.3823,28.8242 22.3823,26.6576 25.5,22.5 Z"/></g>
<g><path style="opacity:1" fill="#028baf" d="M 36.5,22.5 C 41.4928,22.997 42.4928,25.1637 39.5,29C 34.3823,28.8242 33.3823,26.6576 36.5,22.5 Z"/></g>
<g><path style="opacity:0.952" fill="#852ca6" d="M 56.5,30.5 C 58.489,36.8078 57.1557,42.4745 52.5,47.5C 54.0267,50.6596 54.6933,53.993 54.5,57.5C 51.0722,57.4535 48.0722,56.2868 45.5,54C 40.8452,53.5008 36.1785,53.3342 31.5,53.5C 31.6282,51.9102 32.2949,50.5769 33.5,49.5C 44.2405,49.2497 50.4072,43.9163 52,33.5C 53.129,31.8588 54.629,30.8588 56.5,30.5 Z"/></g>
<g><path style="opacity:0.258" fill="#000000" d="M 45.5,63.5 C 36.1667,63.5 26.8333,63.5 17.5,63.5C 16.1225,62.7656 14.6225,62.0989 13,61.5C 12.3828,60.5509 12.5494,59.7175 13.5,59C 25.5,57 37.5,57 49.5,59C 50.4506,59.7175 50.6172,60.5509 50,61.5C 48.3775,62.0989 46.8775,62.7656 45.5,63.5 Z"/></g>
</svg>
